# xmcd
#
# Track frame offsets: 
#        150
#        18125
#        37950
#        55010
#        79932
#        99717
#        123467
#        146185
#        169285
#        189327
#        214380
#        235252
#        258365
#        279152
#
# Disc length: 4046 seconds
#
# Revision: 0
# Processed by: cddbd v1.5.2PL0 Copyright (c) Steve Scherf et al.
# Submitted via: ExactAudioCopy v0.95b4
#
DISCID=c20fcc0e
DTITLE=LaTanya - LaTanya
DYEAR=2005
DGENRE=R&B
TTITLE0=What U On (F. Twista)
TTITLE1=This House (F. Memphis Bleek)
TTITLE2=Keys
TTITLE3=If You Play Your Cards Right
TTITLE4=Why You Acting Shady
TTITLE5=Make You Moan
TTITLE6=Yes You're My Baby (F. Al Hudson)
TTITLE7=Morning Love
TTITLE8=I Gets High
TTITLE9=He Will
TTITLE10=Baby Be True To Me
TTITLE11=Was She
TTITLE12=In The Rain
TTITLE13=Whatcha Gonna Do
EXTD=
EXTT0=
EXTT1=
EXTT2=
EXTT3=
EXTT4=
EXTT5=
EXTT6=
EXTT7=
EXTT8=
EXTT9=
EXTT10=
EXTT11=
EXTT12=
EXTT13=
PLAYORDER=
